# xmcd CD database file
#
# Track frame offsets:
#	150
#	25515
#	51335
#	78479
#	102900
#	133953
#	161366
#	189417
#	214428
#	236339
#
# Disc length: 3558 seconds
#
# Revision: 0
# Processed by: cddbd v1.5.2PL0 Copyright (c) Steve Scherf et al.
# Submitted via: CDex 1.70beta2
#
DISCID=820de40a
DTITLE=Tom Reinbrecht - Ten of a kind
DYEAR=2008
DGENRE=Jazz
TTITLE0=Tikum Olam
TTITLE1=Now's Always
TTITLE2=Geisha
TTITLE3=Tryndard
TTITLE4=Dance in the Maze
TTITLE5=A Few more Days
TTITLE6=Easter Tuesday at Vogler's Bar
TTITLE7=Valse a Mimine et Momoche
TTITLE8=Sweet Vendetta
TTITLE9=Sophies World
EXTD=YEAR: 2008
EXTT0=
EXTT1=
EXTT2=
EXTT3=
EXTT4=
EXTT5=
EXTT6=
EXTT7=
EXTT8=
EXTT9=
PLAYORDER=
